<svg xmlns="http://www.w3.org/2000/svg" viewBox="0 0 150 150"><defs><style>.cls-1{fill:none;}</style></defs><title>icons</title><g id="behance"><path d="M12,114.14V35.8h1.13q18.08,0,36.15,0A34,34,0,0,1,61,37.6c6.45,2.34,10.78,6.65,12.18,13.5,1.06,5.15.87,10.2-1.88,14.9a15,15,0,0,1-5.67,5.3l-1.35.77c1.29.67,2.48,1.23,3.61,1.9a15.76,15.76,0,0,1,7.55,10.28c2.08,8.76.25,16.6-6.15,23.14a20.59,20.59,0,0,1-12.31,6,81.31,81.31,0,0,1-10.07.79c-11.26.1-22.52,0-33.78,0C12.78,114.19,12.45,114.16,12,114.14ZM30.14,79.69v20.8a1.17,1.17,0,0,0,.27.09c6.06,0,12.12.09,18.17-.11A16.68,16.68,0,0,0,54.74,99c3.33-1.5,4.61-4.56,4.91-8a10.5,10.5,0,0,0-1.35-7c-1.83-2.78-4.66-3.86-7.76-4-4.18-.26-8.39-.22-12.58-.28C35.39,79.67,32.81,79.69,30.14,79.69Zm0-13.07c.32,0,.59.07.85.07,5.16,0,10.33,0,15.49,0a28.14,28.14,0,0,0,4.21-.37,10.05,10.05,0,0,0,5.06-2.16c2.08-1.78,2.4-4.24,2.34-6.77C58,54.49,57,52.09,54.26,50.83a12.66,12.66,0,0,0-3.37-.91c-6.85-1-13.74-.38-20.61-.49,0,0-.05,0-.14.12Z"/><path d="M138,87.8H97.29c-.07.14-.15.23-.15.32.26,7.72,4.47,12.88,12.29,13.55,3.3.28,6.52-.06,9.22-2.15a29.36,29.36,0,0,0,3.09-3.4c.3-.32.72-.72,1.09-.72,4.61,0,9.23,0,13.84,0a2.48,2.48,0,0,1,.44.09,11.08,11.08,0,0,1-1.78,5.22,24.67,24.67,0,0,1-16.47,12.09c-8.93,1.93-17.42,1-25.29-4A22.26,22.26,0,0,1,83.45,94.37a42.63,42.63,0,0,1,.41-21.64c2.65-9.14,8.69-15.09,17.82-17.52A31,31,0,0,1,125.58,58a23.47,23.47,0,0,1,9.24,10.17c2.24,4.35,2.94,9.06,3.13,13.87C138,83.88,138,85.77,138,87.8Zm-15.29-9.72C122.32,70.34,117,66.24,110,66.21c-8.54,0-11.9,6.41-12.33,11.87Z"/><path d="M94.24,46.83v-7.7h31.45v7.7Z"/><rect class="cls-1" width="150" height="150"/></g></svg>