<svg xmlns="http://www.w3.org/2000/svg" viewBox="0 0 150 150"><defs><style>.cls-1{fill:none;}</style></defs><title>icons</title><g id="instagram"><path d="M17.09,94.07V55.93a7.35,7.35,0,0,0,.16-1,61.86,61.86,0,0,1,1.46-13.54c2.51-9.86,8.27-17,17.68-21,5.4-2.31,11.12-2.92,16.93-3,.87,0,1.73-.15,2.6-.23H94.07a7.32,7.32,0,0,0,1,.16,61.88,61.88,0,0,1,13.54,1.46c9.86,2.51,17,8.27,21,17.68,2.31,5.39,2.92,11.12,3,16.93,0,.87.15,1.73.23,2.6V94.07a7.34,7.34,0,0,0-.16,1,61.83,61.83,0,0,1-1.46,13.54c-2.51,9.86-8.27,17-17.68,21-5.4,2.31-11.12,2.92-16.93,3-.87,0-1.73.15-2.6.23H55.93a7.31,7.31,0,0,0-1-.16,61.85,61.85,0,0,1-13.54-1.46c-9.86-2.51-17-8.27-21-17.68-2.31-5.4-2.92-11.12-3-16.93C17.3,95.81,17.17,94.94,17.09,94.07Zm57.79,28.21v.08c4.9,0,9.81.12,14.7,0a121.9,121.9,0,0,0,14.63-1C113,120,118.71,115,121,106.24c1.23-4.68,1.25-9.48,1.31-14.24q.19-15.73,0-31.47a106.73,106.73,0,0,0-1-14.74C120,37,115,31.29,106.24,29c-4.68-1.23-9.48-1.25-14.24-1.31q-15.73-.19-31.47,0a106.72,106.72,0,0,0-14.74,1C37,30,31.29,35,29,43.76c-1.23,4.68-1.25,9.48-1.31,14.24q-.19,15.73,0,31.47a106.71,106.71,0,0,0,1,14.74C30,113,35,118.71,43.75,121a52.4,52.4,0,0,0,12.52,1.25C62.48,122.36,68.68,122.28,74.88,122.28Z"/><path d="M104.81,75A29.81,29.81,0,1,1,75.06,45.19,29.88,29.88,0,0,1,104.81,75ZM55.76,75A19.24,19.24,0,1,0,75.08,55.76,19.26,19.26,0,0,0,55.76,75Z"/><path d="M105.88,51.09a7,7,0,1,1,7-7A7,7,0,0,1,105.88,51.09Z"/><rect class="cls-1" width="150" height="150"/></g></svg>