<svg id="linkedin" xmlns="http://www.w3.org/2000/svg" viewBox="0 0 150 150"><defs><style>.cls-1{fill:none;}</style></defs><title>icons</title><rect x="24" y="58" width="21" height="71"/><path d="M48.4,36a13.29,13.29,0,0,1-26.57-.41A13.62,13.62,0,0,1,35,22.34,13.67,13.67,0,0,1,48.4,36Z"/><path d="M128.12,127H106.17c0-3,0-9.06,0-14-.05-9,.12-17.79-.27-26.81-.3-6.9-3.48-10.26-8.81-10.84-6.2-.67-11.84,2.52-13.45,8.51A63.65,63.65,0,0,0,82,98.38c-.24,9.94-.08,18.62-.08,30.62H60V58H80.56c.13,4,.26,5.29.43,8.79,8.15-9.31,17.46-12.56,28.88-10.43,9.76,1.83,15.42,7.71,17,17.15a126.84,126.84,0,0,1,1.24,19C128.26,104,128.12,116,128.12,127Z"/><rect class="cls-1" width="150" height="150"/></svg>