<svg xmlns="http://www.w3.org/2000/svg" viewBox="0 0 150 150"><defs><style>.cls-1{fill:none;}</style></defs><title>icons</title><g id="mail"><path d="M20.29,28.74v92.53c0,4.22,3.7,7.65,8.27,7.65h92.88c4.57,0,8.27-3.42,8.27-7.65V28.74c0-4.22-3.7-7.65-8.27-7.65H28.56C24,21.09,20.29,24.51,20.29,28.74ZM38,31.5H112A6.82,6.82,0,0,1,119.12,38v5S78.17,79.53,75,79.53,30.88,43.06,30.88,43.06V38A6.82,6.82,0,0,1,38,31.5Zm63.41,38.93c9.45-7.9,17.75-15.22,17.75-15.22v48.67ZM30.88,55.21s8.28,7.3,17.71,15.19l-17.71,35Zm77.06,63.29H42.05a11,11,0,0,1-5.1-1.22L57.14,77.46c8.38,6.78,16,12.48,17.86,12.48s9.5-5.71,17.88-12.49l20.93,39.4A11.22,11.22,0,0,1,107.95,118.5Z"/><rect class="cls-1" width="150" height="150"/></g></svg>