<svg xmlns="http://www.w3.org/2000/svg" viewBox="0 0 463.66 160.49"><defs><style>.a{fill:#fff;}.b{fill:none;}</style></defs><title>wht-logo</title><path class="a" d="M319.7,104.17h4.4c.55,2-.56,2.84-2.13,2.86-6.1.09-12.19.08-18.29,0-1.55,0-2.59-.81-2.15-2.83h4v-2.41q0-14.34,0-28.68c0-2,0-4.08-.11-6.11s-3.79-3.67-6-3.06c-3.94,1.08-6,4-7,7.64-.48,1.77-.16,3.76-.16,5.65,0,8.86,0,17.73,0,26.81h3.93c.63,1.95-.75,2.51-1.81,2.53-6.37.12-12.75.11-19.12,0-1.2,0-2.37-.62-2-2.42h4.45v-2.52q0-34.6,0-69.21a4.84,4.84,0,0,1,0-1.24c.65-2.37-.07-3.36-2.67-3.25-1.23,0-2.3-.88-1.71-3l18.46-.8V65.79c2.85-4,6.12-6.45,10.4-7.12,6.37-1,13.16,0,16.16,7.09a11.51,11.51,0,0,1,.88,4.14c.21,10.57.31,21.15.45,31.72C319.71,102.37,319.7,103.12,319.7,104.17Z"/><path class="a" d="M109.45,112.17c-1-.67-1.76-1.24-2.57-1.77a11.87,11.87,0,0,1-5.63-9.2c-.65-6.34,2.88-9.54,8.54-11.69-.71-.82-1.29-1.43-1.81-2.1-2.08-2.66-4.91-5-6-8.06-1.71-4.65-.61-9.5,2.33-13.6,3.63-5.06,8.77-7.24,15-7.29,3.53,0,6.94.15,10.11,2,1.31.76,2.46.57,3.82-.61,1.95-1.69,4.09-3.39,7.11-3,4.17.49,5.08,2.15,4.65,5.43-.35,2.71-4.37,3.92-6.79,2.17a13.86,13.86,0,0,0-2.48-1.15l-.44.58c.67,1.39,1.27,2.82,2,4.17a15.67,15.67,0,0,1,1.32,11c-1.62,7.06-6.7,11.81-15.88,12.32-3.62.2-7.25.38-10.83.9a8.7,8.7,0,0,0-4.06,2,3.11,3.11,0,0,0,.79,5.36,11.93,11.93,0,0,0,4.65,1.2c6.1.14,12.2.16,18.29,0,6.52-.14,12.79,5.18,12.18,12.18-.23,2.66,0,5.58-1,7.92-3.28,7.57-8.74,12.8-17.33,14-5.29.76-10.49.73-15.54-1.26a12.56,12.56,0,0,1-7.77-7.8,9.45,9.45,0,0,1,3.51-11.19C106.67,114,107.82,113.26,109.45,112.17Zm13.32,0,0,.36c-2.7,0-5.4,0-8.1,0a3.29,3.29,0,0,0-3.33,2.49,14.59,14.59,0,0,0-.4,6.78c.42,3.51,1.91,6.55,5.31,8.19a14.1,14.1,0,0,0,9.46,1.27c6.68-1.52,12.53-5,13.47-12.94.32-2.68-.76-4.53-3.53-4.9C131.36,112.86,127.06,112.6,122.77,112.2Zm-8.46-36.81-.37,0c.36,3.19.6,6.4,1.13,9.56.45,2.68,2.74,4.1,5.63,3.87,2.44-.2,4.06-1.94,4.3-4.62.27-3,.66-6,.8-9,.12-2.66,0-5.33-.11-8A8.7,8.7,0,0,0,125,63.9c-1.09-2.17-3.05-2.7-5.39-2.53-2,.15-3.64.79-4.41,2.72a14,14,0,0,0-.22,2.45,38.45,38.45,0,0,0-1,4.35A28.88,28.88,0,0,0,114.31,75.39Z"/><path class="a" d="M233.09,103.49H238c.23,2-.66,3.21-2.52,3.28-4.13.17-8.26.34-12.39.39-1.16,0-2.59,1.19-3.49-.49a12.73,12.73,0,0,1-.84-2.19c-.14-.44,0-1.13-.29-1.34a1.61,1.61,0,0,0-1.41-.06,13.27,13.27,0,0,0-2.19,1.46A16.42,16.42,0,0,1,199,107.19a10,10,0,0,1-6.62-6.91,25.06,25.06,0,0,1-1.17-6.79c-.13-8.94-.05-17.87-.05-26.81a4.83,4.83,0,0,1,0-1.45c.74-2.22-.45-2.52-2.27-2.57-1.47,0-2.67-.68-2.16-2.88l18.54-1c0,5.61,0,10.86,0,16.1,0,6.86-.13,13.72.08,20.58a10.44,10.44,0,0,0,1.82,5.4c1.74,2.47,3.62,2.05,5.72.85a10,10,0,0,0,5.27-8.87q.41-13.53.83-27.07c.09-3,.09-3-3.16-3.07-2.45,0-3.1-.61-2.91-2.89l20.13-1Z"/><path class="a" d="M186.59,100.67c1.48,1.33,1.32,2.45.18,3.72-3.28,3.66-12.36,6.22-15.84.14-.76-1.32-2-1.42-3.3-.56a21.85,21.85,0,0,1-3.76,2.4c-4.44,1.77-9,2.65-13.7,1a9.56,9.56,0,0,1-6.22-6.25c-2.46-7.69,1.26-15,9.73-17.78a101.19,101.19,0,0,1,12.61-2.94c1.64-.32,1.93-1.15,1.95-2.56,0-3.51.32-7,.22-10.51,0-1.48-.39-3.38-1.35-4.29s-2.91-1-4.45-1.39a7.73,7.73,0,0,0-2.28,0c-2,.17-2.69,1.25-2.09,3.1.42,1.28.87,2.56,1.2,3.87a6.17,6.17,0,0,1-3.93,7.5,6.45,6.45,0,0,1-7.8-3.72c-2.48-5.65,1.11-9.7,5-11.55a27.89,27.89,0,0,1,15.17-2.48A19.7,19.7,0,0,1,179.39,63a6.44,6.44,0,0,1,2.13,5.11q0,14.13,0,28.25a22.76,22.76,0,0,0,.4,3.65c.35,2.11,1,2.43,3,1.5C185.46,101.25,186,101,186.59,100.67Zm-23.75,1.28a3.52,3.52,0,0,0,4-1.93,12.65,12.65,0,0,0,.95-4.13c.36-3.47.55-7,.89-10.43.18-1.89-.29-2.53-2.14-2.2a24.06,24.06,0,0,0-5.28,1.41c-2.27,1-4.23,3-4,5.32s-.49,4.49,0,6.86C157.92,100.12,159.25,101.95,162.84,101.95Z"/><path class="a" d="M43.86,104.18h4.91c.52,2.05-.6,2.83-2.19,2.85-6.44.08-12.89.06-19.34,0-1.67,0-2.73-.76-2.32-2.88H29.8v-2.63q0-34.51,0-69c0-.42,0-.83,0-1.25,0-2.92,0-2.88-2.8-3.24-1.51-.19-2.53-.9-2-3l18.86-.86Z"/><path class="a" d="M397.51,79.17a27.59,27.59,0,0,1-3.29.46q-10.81,0-21.62,0c-1.8,0-2.66.24-2.36,2.54.39,3.07,0,6.23.14,9.34a36.71,36.71,0,0,0,1,6.84c1.32,5.27,6.33,6.48,10.48,5.67,5.84-1.14,9.74-4.63,11.29-10.42.68-2.56,2.43-1.8,4.18-1.82a11.3,11.3,0,0,1-.57,3.07,48.08,48.08,0,0,1-3.31,5.53c-3.41,4.95-8.18,7.33-14.19,7.59a22.72,22.72,0,0,1-16-5,21.53,21.53,0,0,1-6.74-10.09c-2.09-6.16-2.6-12.53-.32-18.76,2.72-7.42,7.2-13.48,15.39-15.21,9.73-2.06,19.2.73,23.58,11.69A75,75,0,0,1,397.51,79.17Zm-27.52-3h13c-.19-2.24-.4-4.34-.54-6.45a45.68,45.68,0,0,0-.21-5c-.42-2.4-2.59-3.49-6.2-3.42-3,.06-4.49,1.23-5.05,3.82a26,26,0,0,0-.92,3.72C369.88,71.24,370,73.62,370,76.21Z"/><path class="a" d="M240.36,59.56H246v-13l14.17-.94V59.4h9.75c.38,2.1-.25,2.94-2.16,3s-3.74,0-5.61,0c-1.52,0-2.32.22-2,2.25a53.43,53.43,0,0,1,.1,7.88c0,8.24,0,16.48,0,24.72,0,1.75-.3,3.72,2.15,4.25,2.22.48,3.95-.59,4.91-3.11.63-1.65,1.44-3.07,3.5-2.64.43.09,1.11,1,1,1.38-1.33,5-5.83,11.18-13.28,11a23.46,23.46,0,0,1-6-.81c-3.37-1-5.15-3-5.82-7-1-6-.35-11.82-.52-17.72-.18-6.26.19-12.54.2-18.81,0-.47-.85-1.15-1.44-1.36a10.06,10.06,0,0,0-2.27-.07C241,62.24,239.9,61.6,240.36,59.56Z"/><path class="a" d="M419.47,104.16h6.09c.46,1.94-.83,2.48-2.06,2.49q-10.5.14-21,0c-1.21,0-2.4-.59-2-2.41h4.89c0-2.44,0-4.76,0-7.09q0-15.48,0-31a4.5,4.5,0,0,1,.09-1.65c.57-1.38-.28-1.71-1.29-1.91-.54-.11-1.26.18-1.63-.09a11.56,11.56,0,0,1-1.74-1.91,6.31,6.31,0,0,1,1.95-.9c5.19-.4,10.4-.7,15.79-1.05v4.49c1.47-1.06,2.64-1.75,3.63-2.64,4-3.54,12.76-3,15.72,2.32,1.73,3.12.52,6.59-2.44,9.34-2.17,2-5.84,1.41-8.17-.7s-1.41-4.25-1.13-6.54a9.36,9.36,0,0,0-.12-1.79c-.81.18-1.84.11-2.39.58a11.08,11.08,0,0,0-3.84,8.14c-.64,8.31,0,16.61-.3,24.91C419.41,99.15,419.47,101.51,419.47,104.16Z"/><path class="a" d="M328.59,59.76l18.45-1v45h4.85c.61,2-.46,2.88-1.94,2.9-6.58.1-13.16.08-19.74,0-1.26,0-2.42-.56-2.18-2.44h5c0-2.31,0-4.44,0-6.57q0-15.69,0-31.38a3,3,0,0,1,0-.83c.65-2.16-.15-2.92-2.37-2.89C329.13,62.67,328,61.86,328.59,59.76Z"/><path class="a" d="M59.87,63.16c-1.8-1.83-5.66.92-6.65-3.12H71.39c.15,1.29-.51,2.55-1.58,2.34-5-.93-6.83,3-9.41,5.76-1.39,1.5-2.59,3.17-3.94,4.71C55.41,74,55.38,75,56.27,76.45Q64,89,71.53,101.71c1.06,1.79,2.34,2.83,4.51,2.27.57,2.12-.53,2.93-2.11,2.95q-9.15.13-18.29,0c-1.52,0-2.61-.79-2.15-2.78h3.28c.5-2.85-1.61-4.52-2.7-6.5-2.77-5.05-5.87-9.92-8.85-14.86a15.72,15.72,0,0,0-1.07-1.37Z"/><path class="a" d="M79.14,99.41c-.45-4.74,4-8.59,8.22-8.6,5.41,0,9.7,4,9.66,8.7,0,3.67-4.81,9-8.26,8.88C83.39,108.19,79.39,105.72,79.14,99.41Z"/><path class="a" d="M332.47,36.21c0-4.86,2.58-7.16,8-7.15,4.75,0,7.21,2.61,7.41,7.32.14,3.45-4.28,8.12-8.22,7.73A7.8,7.8,0,0,1,332.47,36.21Z"/><rect class="b" x="151.58" y="-151.58" width="160.49" height="463.66" transform="translate(312.07 -151.58) rotate(90)"/></svg>