<svg xmlns="http://www.w3.org/2000/svg" viewBox="0 0 100 100">
	<defs>
		<style>.a{fill:none;}.b{fill:#2C3E50;}</style>
	</defs><title>Untitled-1</title>
	<rect class="a" width="100" height="100"/>
	<path class="b" d="M32.93,87.92h4.91c.52,2.05-.6,2.83-2.19,2.85-6.44.08-12.89.06-19.34,0-1.67,0-2.73-.76-2.32-2.88h4.88V85.26q0-34.51,0-69c0-.42,0-.83,0-1.25,0-2.92,0-2.88-2.8-3.24-1.51-.19-2.53-.9-2-3l18.86-.86Z"/>
	<path class="b" d="M48.95,46.9c-1.8-1.83-5.66.92-6.65-3.12H60.46c.15,1.29-.51,2.55-1.58,2.34-5-.93-6.83,3-9.41,5.76-1.39,1.5-2.59,3.17-3.94,4.71-1.05,1.19-1.08,2.17-.19,3.61Q53.1,72.74,60.6,85.44c1.06,1.79,2.34,2.83,4.51,2.27.57,2.12-.53,2.93-2.11,2.95q-9.15.13-18.29,0c-1.52,0-2.61-.79-2.15-2.78h3.28c.5-2.85-1.61-4.52-2.7-6.5-2.77-5.05-5.87-9.92-8.85-14.86a15.72,15.72,0,0,0-1.07-1.37Z"/>
	<path class="b" d="M68.21,83.15c-.45-4.74,4-8.59,8.22-8.6,5.41,0,9.7,4,9.66,8.7,0,3.67-4.81,9-8.26,8.88C72.47,91.93,68.47,89.46,68.21,83.15Z"/></svg>
